# xmcd
#
# Track frame offsets:
#	150
#	17305
#	33980
#	55255
#	68850
#	88875
#	113505
#	136420
#	148645
#
# Disc length: 2171 seconds
#
# Revision: 0
# Processed by: cddbd v1.5.1PL2 Copyright (c) Steve Scherf et al.
# Submitted via: dBpowerAMP V4.0
#
DISCID=73087909
DTITLE=Big Harmonica Bob - Straight From The Harp
DYEAR=2005
DGENRE=Blues
TTITLE0=Big Harmonica Bob's Boogie
TTITLE1=Lookie Here
TTITLE2=Blow You Out Blues
TTITLE3=Harp Battle Mambo
TTITLE4=I Like It w/ Becky Cano
TTITLE5=The Bad Boy Shuffle w/J.J. 'Bad Boy' Jones
TTITLE6=Beach Fest Boogie
TTITLE7=(Rough Cut) Big Bob's Shuffle
TTITLE8=Fifty Bucks
EXTD=
EXTT0=
EXTT1=
EXTT2=
EXTT3=
EXTT4=
EXTT5=
EXTT6=
EXTT7=
EXTT8=
PLAYORDER=
